HIERARCHY
ROOT Hips
{
  OFFSET -125.086 92.215 135.881
  CHANNELS 6 Xposition Yposition Zposition Zrotation Xrotation Yrotation
  JOINT LeftUpLeg
  {
    OFFSET 8.64259 1.95398 -2.38835
    CHANNELS 3 Zrotation Xrotation Yrotation
    JOINT LeftLeg
    {
      OFFSET 43.7702 0 0
      CHANNELS 3 Zrotation Xrotation Yrotation
      JOINT LeftFoot
      {
        OFFSET 40.6238 0 0
        CHANNELS 3 Zrotation Xrotation Yrotation
        JOINT LeftToeBase
        {
          OFFSET 12.7242 0 0
          CHANNELS 3 Zrotation Xrotation Yrotation
          End Site
          {
            OFFSET 0 0 0
          }
        }
      }
    }
  }
  JOINT RightUpLeg
  {
    OFFSET -8.2249 1.95398 -2.59336
    CHANNELS 3 Zrotation Xrotation Yrotation
    JOINT RightLeg
    {
      OFFSET 43.5653 0 0
      CHANNELS 3 Zrotation Xrotation Yrotation
      JOINT RightFoot
      {
        OFFSET 40.6238 0 0
        CHANNELS 3 Zrotation Xrotation Yrotation
        JOINT RightToeBase
        {
          OFFSET 12.7242 0 0
          CHANNELS 3 Zrotation Xrotation Yrotation
          End Site
          {
            OFFSET 0 0 0
          }
        }
      }
    }
  }
  JOINT Spine
  {
    OFFSET 0.165834 0.87714 6.61349
    CHANNELS 3 Zrotation Xrotation Yrotation
    JOINT Spine1
    {
      OFFSET 7.38963 1.71661e-005 0
      CHANNELS 3 Zrotation Xrotation Yrotation
      JOINT Spine2
      {
        OFFSET 11.9445 1.14441e-005 0
        CHANNELS 3 Zrotation Xrotation Yrotation
        JOINT Spine3
        {
          OFFSET 14.7254 4.19617e-005 0
          CHANNELS 3 Zrotation Xrotation Yrotation
          JOINT Spine4
          {
            OFFSET 10.9679 0 0
            CHANNELS 3 Zrotation Xrotation Yrotation
            JOINT RightShoulder
            {
              OFFSET 2.46616 -1.6653 3.69651
              CHANNELS 3 Zrotation Xrotation Yrotation
              JOINT RightArm
              {
                OFFSET 13.0012 0 0
                CHANNELS 3 Zrotation Xrotation Yrotation
                JOINT RightForeArm
                {
                  OFFSET 28.7848 1.52588e-005 0
                  CHANNELS 3 Zrotation Xrotation Yrotation
                  JOINT RightHand
                  {
                    OFFSET 26.5688 1.52588e-005 0
                    CHANNELS 3 Zrotation Xrotation Yrotation
                    End Site
                    {
                      OFFSET 0 0 0
                    }
                  }
                }
              }
            }
            JOINT LeftShoulder
            {
              OFFSET 2.38034 -1.29275 -3.7523
              CHANNELS 3 Zrotation Xrotation Yrotation
              JOINT LeftArm
              {
                OFFSET 16.3182 6.10352e-005 0
                CHANNELS 3 Zrotation Xrotation Yrotation
                JOINT LeftForeArm
                {
                  OFFSET 27.0901 0 0
                  CHANNELS 3 Zrotation Xrotation Yrotation
                  JOINT LeftHand
                  {
                    OFFSET 24.5451 1.52588e-005 0
                    CHANNELS 3 Zrotation Xrotation Yrotation
                    End Site
                    {
                      OFFSET 0 0 0
                    }
                  }
                }
              }
            }
            JOINT Neck
            {
              OFFSET 5.0226 -0.0266342 0
              CHANNELS 3 Zrotation Xrotation Yrotation
              JOINT Head
              {
                OFFSET 6.69363 2.86102e-005 0
                CHANNELS 3 Zrotation Xrotation Yrotation
                End Site
                {
                  OFFSET 0 0 0
                }
              }
            }
          }
        }
      }
    }
  }
}
MOTION
Frames:	18
Frame Time:	0.0416667
-325.228 94.6252 22.5279 92.5551 3.34457 91.1993 -175.978 1.06837 90.2638 -9.3899 17.5832 4.16231 57.4229 3.74344 7.56757 39.7707 -1.01483 4.02677 175.801 5.89183 89.0893 -19.3203 3.33146 -0.672395 61.3405 0.925307 13.9003 33.5208 -0.73343 -0.11593 -0.231205 7.31774 -90.2653 12.2371 -0.585203 -0.464005 0.566175 -0.605042 -0.437806 -21.9689 -0.418692 -0.61843 -1.95629 -0.418695 -0.618427 110.352 -52.6568 -69.8295 31.8176 1.09781 -10.9992 -3.0596 -41.6756 -14.4258 -16.925 -1.62068 5.99694 -72.8313 -45.3143 104.921 -46.2693 -7.38362 -18.2042 26.8285 60.8139 -26.9313 2.14197 -0.142336 -5.68419 -3.25407 -1.91055 -13.7099 -7.31902 -1.06726 21.7965 
-325.151 94.5912 22.6103 92.8505 3.6343 90.8944 -175.614 0.675496 90.166 -8.90194 15.6232 3.60185 58.4469 4.47094 6.7507 38.9087 -0.897374 1.22967 175.283 5.8988 88.6753 -20.1513 3.35615 -0.304481 62.2635 0.667743 13.4512 31.6807 -0.444819 -0.106491 -0.208986 7.31667 -90.2423 12.2394 -0.530133 -0.424405 0.568473 -0.548325 -0.400662 -21.9666 -0.378091 -0.564109 -1.95394 -0.3781 -0.564118 109.471 -51.7011 -71.0238 32.6291 0.842744 -10.1234 -1.9238 -38.7589 -13.105 -15.4846 -1.38128 5.2799 -72.0053 -45.4594 106.23 -45.8118 -6.5184 -17.8621 19.5015 56.5417 -20.056 -4.21604 -0.00281339 -10.9358 6.05039 -0.649948 -7.9855 -21.7159 -0.918445 11.0274 
-324.832 94.6416 22.9072 92.4378 3.49903 91.2351 -175.987 1.44766 90.68 -10.691 19.5867 4.535 57.2951 3.44864 7.87461 41.0753 -1.08377 5.82835 175.388 5.91026 89.1331 -19.7591 3.87066 -0.17908 62.0085 0.682965 14.0916 31.7328 -0.415857 -0.607806 -0.138735 7.30408 -90.2715 12.2647 -0.404422 -0.497119 0.593763 -0.425941 -0.478838 -21.9408 -0.23635 -0.595685 -1.92818 -0.236328 -0.595684 109.738 -52.0148 -70.6627 31.9227 0.333454 -10.5498 -2.22236 -38.8274 -13.4728 -14.2656 -1.33741 5.80754 -72.5584 -46.5678 105.234 -45.0909 -7.36527 -16.7744 18.1311 54.9911 -18.9915 -3.16646 -0.063289 -8.61726 4.37288 -0.793464 -7.63608 -19.4747 -0.938485 10.8288 
-324.463 94.512 23.2217 92.2394 4.08253 91.1603 -176.156 1.57293 90.6095 -10.7417 18.0077 4.68871 58.2941 3.90957 6.6524 40.4011 -1.04592 4.66345 174.99 5.85754 89.2191 -20.0344 4.46553 0.371825 63.2498 -0.166602 12.7326 31.4198 -0.516622 1.37239 -0.188263 7.3824 -90.2625 12.1079 -0.49824 -0.46887 0.437008 -0.518396 -0.446497 -22.0979 -0.334321 -0.596936 -2.08523 -0.334307 -0.596939 109.756 -52.0227 -70.6359 31.867 0.0762497 -10.8259 -2.33903 -38.3438 -13.854 -14.341 -1.33144 5.71398 -73.3241 -47.2092 103.968 -44.2787 -7.97458 -16.2556 18.1187 53.3693 -19.196 -1.85951 -0.103086 -7.65395 6.12745 -0.767829 -7.01665 -20.9845 -0.930275 10.0352 
-324.098 94.5125 23.6994 91.6018 4.6104 90.9791 -176.23 1.41154 90.5819 -9.33266 18.199 4.69473 57.7076 3.79479 6.90932 40.8449 -1.07012 4.2367 175.166 6.74092 89.2205 -21.0643 6.38473 0.212991 63.2955 0.606518 15.6326 31.4854 -0.47267 0.674049 -0.258911 7.39933 -90.2463 12.074 -0.631025 -0.422039 0.40312 -0.648962 -0.39387 -22.1323 -0.474986 -0.592173 -2.11962 -0.474987 -0.592175 109.193 -51.4406 -71.4112 32.7114 0.209957 -10.798 -2.37885 -39.014 -13.6099 -13.6408 -1.25619 5.64516 -73.1151 -47.228 104.295 -43.903 -7.42302 -16.7905 17.7783 54.3585 -18.9737 -1.659 -0.115892 -8.44127 5.29315 -0.416491 -6.7034 -19.0201 -0.539932 10.2056 
-323.477 94.4079 24.3868 91.5697 5.0141 90.7017 -176.274 1.47041 90.79 -10.1433 18.8776 5.0072 58.0636 3.78253 6.22873 42.0692 -1.12802 6.2717 175.29 6.85259 89.4815 -22.1974 6.24472 0.109103 64.2453 0.142827 15.2549 32.5982 -0.588902 -0.149798 -0.317581 7.47857 -90.2406 11.9155 -0.744692 -0.399762 0.244682 -0.761578 -0.366602 -22.2912 -0.590122 -0.60509 -2.27851 -0.590124 -0.605097 109.127 -51.6421 -71.5392 32.6108 0.302002 -10.7715 -1.40766 -38.8559 -12.3584 -15.7008 -1.5404 6.31002 -73.241 -47.3722 104.085 -43.0147 -6.40064 -17.9856 17.1072 57.903 -18.7672 -2.43437 -0.0880793 -7.83625 5.02603 -0.0427758 -6.65903 -18.8114 -0.333435 11.3845 
-322.568 94.3322 25.2857 91.2223 3.91373 90.9044 -175.571 1.15174 91.5505 -10.0665 18.223 4.8432 58.4798 4.22105 6.20212 42.8106 -1.14471 6.65512 175.521 7.73995 90.0529 -24.0394 4.88901 0.106793 63.9206 0.189978 15.7157 34.3536 -0.792357 -1.54543 -0.252355 7.54018 -90.293 11.7919 -0.639387 -0.516226 0.120986 -0.661491 -0.487591 -22.4141 -0.454708 -0.684526 -2.40143 -0.454676 -0.684521 109.41 -51.8643 -71.1392 32.4605 0.738789 -11.5571 -0.57187 -39.6963 -10.4355 -15.465 -1.41226 5.50889 -73.0658 -47.0468 104.387 -43.3675 -5.64119 -20.7777 18.1614 63.2283 -18.6672 -4.43213 -0.0396631 -7.26035 4.94883 0.476247 -6.78301 -19.2018 0.10873 11.722 
-321.045 94.1235 26.2762 91.4863 2.83051 90.6455 -176.244 0.555345 91.5177 -11.3702 15.1364 5.39415 59.3834 5.33444 5.55733 44.6747 -1.20468 6.87102 175.516 7.25729 90.4011 -25.4929 3.80485 0.143963 65.2773 -0.259155 15.0019 34.4671 -0.79725 -1.77633 -0.253076 7.58764 -90.2855 11.697 -0.637381 -0.502369 0.0261514 -0.658852 -0.473831 -22.509 -0.456925 -0.670696 -2.49632 -0.456917 -0.670704 109.863 -52.3954 -70.5265 31.9194 0.860146 -10.6099 -1.07739 -39.3699 -11.3001 -14.6854 -1.3676 5.74142 -73.4064 -46.5659 103.893 -43.698 -5.5296 -20.6417 18.8033 60.7372 -19.8695 -2.98991 -0.0831738 -5.19474 4.25447 0.584469 -8.57272 -19.0324 0.1363 14.4989 
-319.296 93.2999 27.3168 91.3667 1.45322 90.4266 -177.204 3.85462 92.0687 -20.2503 13.9104 4.3286 60.5463 7.57572 8.097 50.521 -1.01131 11.195 174.472 6.57438 90.4627 -26.7045 0.989527 1.34805 70.0532 -3.15768 9.83064 32.2047 -0.690217 2.30242 -0.173127 7.54375 -90.3075 11.7849 -0.488724 -0.561228 0.113917 -0.512944 -0.539184 -22.4206 -0.297508 -0.682168 -2.40795 -0.297481 -0.682167 109.867 -52.2376 -70.4983 32.0509 1.50793 -9.60786 -1.25871 -39.9474 -11.112 -14.9055 -1.34595 5.40182 -73.5491 -46.3146 103.687 -42.5848 -4.71996 -18.4577 19.3662 53.1171 -23.8905 -3.17826 -0.0794058 -5.94959 4.89093 1.35594 -8.62187 -20.7568 0.749836 14.3849 
-317.292 92.4333 28.1856 92.8042 0.877111 89.8629 -178.729 11.0432 91.4394 -38.894 12.002 4.97438 59.2474 6.64331 5.78622 56.4463 -0.0336014 18.4629 174.773 5.67006 90.1433 -30.9688 0.831661 0.513122 73.699 -2.19323 13.6909 30.7268 -0.163705 -1.83578 -0.0839451 7.76764 -90.3477 11.3372 -0.329087 -0.659838 -0.333865 -0.35781 -0.644726 -22.8678 -0.115579 -0.728236 -2.85511 -0.115567 -0.728235 108.991 -51.7767 -71.763 31.7047 1.16685 -9.93852 0.0743144 -40.2047 -9.63473 -15.4473 -1.45366 5.84224 -72.0213 -46.1283 106.127 -42.8364 -3.88598 -18.3648 24.1227 52.0544 -30.2932 1.1199 -0.139558 -5.91514 5.50069 1.57444 -7.57944 -20.1856 0.943932 13.9779 
-314.726 91.695 28.7715 93.5524 0.529964 88.9201 -178.852 19.2228 90.0798 -53.2437 8.20239 4.08255 59.3279 7.01373 6.07375 56.1368 0.0122513 18.887 174.091 4.21152 89.2331 -32.9474 -1.06627 0.712039 75.8853 -3.02448 12.2887 33.5357 -0.535679 -3.75463 0.169361 7.88647 -90.3894 11.1007 0.156408 -0.790117 -0.570462 0.121488 -0.796247 -23.104 0.386617 -0.706595 -3.09133 0.386645 -0.706592 108.799 -51.0516 -71.9632 31.4338 1.2036 -10.0997 -0.261526 -40.8381 -10.0815 -15.0288 -1.52037 6.67704 -71.2018 -47.5679 107.252 -42.1738 -3.82751 -17.6612 26.5824 52.511 -33.9101 -1.42665 -0.103441 -5.71357 5.06734 1.277 -6.15379 -19.2459 0.639087 12.8042 
-311.794 91.843 29.1252 93.014 -0.188673 87.3413 -177.852 22.6359 87.7797 -46.0086 9.95477 2.18195 59.1752 6.46864 7.45238 56.1845 0.0632388 19.3589 173.422 2.42966 87.7841 -31.5998 -0.989469 0.517231 76.4244 -4.19325 10.6599 35.722 -1.08142 0.235493 0.42372 7.83741 -90.2132 11.2012 0.744182 -0.497609 -0.469601 0.721569 -0.529883 -23.0062 0.8593 -0.250941 -2.9936 0.859349 -0.250933 109.844 -51.8267 -70.4754 30.7248 0.835679 -10.7348 -0.59622 -39.6477 -10.8841 -15.0548 -1.41221 5.81055 -72.8496 -46.1165 104.813 -44.4364 -5.15138 -15.5332 23.98 51.8341 -29.7568 -4.10589 -0.0427315 -7.16155 7.15003 0.187851 -8.14261 -21.1134 -0.33902 14.1763 
-308.589 91.9749 29.2428 91.5837 -0.451416 86.7939 -177.946 20.8285 86.6263 -20.9106 3.07737 0.201315 55.7322 4.69071 4.46019 52.7149 -1.02985 10.693 174.381 1.34369 87.8005 -30.3809 1.28445 -0.898911 75.0215 -2.46903 14.4516 38.3239 -1.4852 -0.0686347 0.530675 7.79128 -90.1573 11.2933 0.982857 -0.410844 -0.37732 0.963838 -0.45372 -22.9154 1.0609 -0.0964292 -2.90276 1.06089 -0.0964385 109.66 -51.3849 -70.6914 30.3482 -1.51234 -12.3806 -0.566036 -35.8226 -12.8659 -15.2697 -1.13892 3.53985 -72.6385 -46.311 105.132 -44.9639 -6.22819 -14.9424 17.6 52.0668 -20.8873 -3.73921 -0.0429631 -8.35515 10.2829 -0.381846 -7.19915 -21.4495 -0.780807 13.148 
-304.601 91.898 29.1168 90.6653 -1.47957 87.1499 -179.922 21.6805 87.3572 -7.67062 9.321 1.33263 49.184 -1.49173 1.15784 46.1083 -1.08284 10.823 173.069 -1.20421 87.2111 -27.8031 0.300293 0.0896051 73.2089 -3.29207 13.1719 43.8382 -2.16072 3.77003 0.668869 7.83736 -90.2235 11.2025 1.22741 -0.565384 -0.468038 1.2013 -0.618861 -23.0077 1.34053 -0.170308 -2.99505 1.34057 -0.170304 109.414 -50.8104 -70.9875 29.068 -3.40523 -14.1806 -2.36443 -34.8791 -17.48 -13.8074 -1.13743 4.47437 -72.7154 -47.0396 104.939 -45.9727 -9.46298 -14.1325 20.9336 58.5787 -20.4538 -6.497 -0.0072141 -6.61218 11.5002 -0.2331 -6.17304 -19.7463 -0.477584 12.2629 
-298.907 91.5448 28.8216 90.5722 -4.33865 88.1862 179.65 21.7094 88.2735 -8.7306 9.64007 2.42766 50.084 -1.10437 0.0892377 44.7899 -1.09971 11.2078 172.65 -3.09057 86.2259 -29.0317 -2.22121 -0.417612 66.3619 -0.00295797 19.7434 55.9173 -4.54004 -0.14405 0.756029 7.95193 -90.1427 10.9731 1.43917 -0.420843 -0.697186 1.41926 -0.48379 -23.2387 1.4991 0.0312436 -3.22607 1.4991 0.0312401 109.605 -51.1237 -70.7395 28.5919 -4.42301 -15.9288 -2.9683 -32.1066 -20.1528 -13.6721 -0.969223 3.19423 -72.7809 -46.6909 104.87 -45.8625 -11.319 -12.7716 19.605 59.7019 -17.2755 -6.43348 0.0158656 -7.31462 12.5334 0.164298 -8.73966 -21.0914 -0.00338189 15.275 
-291.846 91.3738 28.2834 90.8516 -5.59857 88.5809 179.741 22.3884 87.4623 -18.8021 11.8179 2.71741 51.6412 -0.703651 6.80662 42.1641 -1.09849 4.69323 171.634 -4.66226 84.2129 -31.5455 -4.51894 -1.14392 56.7848 2.28703 23.7183 65.9918 -4.75108 4.29095 0.654105 7.96724 -89.883 10.94 1.35633 0.10406 -0.730171 1.35956 0.0442482 -23.2705 1.26232 0.506944 -3.25781 1.26235 0.506944 109.926 -51.468 -70.2975 29.1263 -4.54202 -14.2566 -4.13478 -30.9154 -22.4701 -14.2748 -0.933287 2.46134 -73.6236 -46.2978 103.57 -45.086 -13.7663 -12.3067 19.3891 61.8863 -15.0441 -7.78478 0.0130894 -6.60114 11.8304 0.852767 -9.74714 -21.5 0.747113 15.6712 
-284.866 91.2073 27.8369 92.0816 -4.32785 88.8583 -179.328 21.1129 86.3649 -27.8492 13.4443 3.01521 58.0802 1.79191 8.43503 39.1586 -0.975468 3.65875 170.063 0.311967 82.4255 -44.7517 -7.72162 -0.95006 43.1759 5.2944 22.3088 59.8096 -4.32049 2.93041 0.452812 8.01654 -89.7067 10.8386 1.03718 0.486496 -0.831975 1.05757 0.44036 -23.3688 0.843021 0.77573 -3.35613 0.842999 0.77572 110.141 -51.8251 -70.0236 29.8551 -3.14189 -12.1209 -4.11831 -32.1286 -20.4785 -13.179 -0.875904 2.60811 -74.5969 -45.4075 102.08 -44.6805 -13.283 -14.5405 18.7296 61.861 -14.0844 -8.24648 0.0299387 -6.71753 10.2406 0.827554 -10.4153 -22.6337 0.526163 16.0006 
-278.279 91.3807 27.7263 94.0216 -3.14234 89.5739 -177.994 16.3042 86.1083 -31.4986 15.6432 3.03551 63.3135 4.94481 11.3163 39.2483 -0.943853 2.05087 170.455 10.6002 83.7346 -62.8783 -11.1553 -1.40273 43.958 4.99523 20.9405 53.5905 -4.45862 -4.56147 0.248424 8.1595 -89.683 10.5538 0.64055 0.572052 -1.11713 0.665099 0.543302 -23.6519 0.439017 0.738119 -3.63925 0.439011 0.738112 109.862 -51.7878 -70.4424 30.963 -1.15313 -10.6694 -3.3877 -32.6914 -17.7825 -13.6526 -1.014 3.53833 -74.2199 -45.6033 102.672 -43.3099 -9.8479 -21.1083 16.4796 62.6951 -12.9826 -6.45739 0.00440277 -6.96641 7.72477 1.09696 -9.82905 -22.2833 0.36993 16.7171 
